<?xml version="1.0" standalone="no"?>
<!DOCTYPE svg PUBLIC "-//W3C//DTD SVG 20010904//EN"
 "http://www.w3.org/TR/2001/REC-SVG-20010904/DTD/svg10.dtd">
<svg version="1.0" xmlns="http://www.w3.org/2000/svg"
 width="431.000000pt" height="665.000000pt" viewBox="0 0 431.000000 665.000000"
 preserveAspectRatio="xMidYMid meet">

<g transform="translate(0.000000,665.000000) scale(0.100000,-0.100000)"
fill="#000000" stroke="none">
<path d="M685 6020 c3 -5 8 -10 11 -10 2 0 4 5 4 10 0 6 -5 10 -11 10 -5 0 -7
-4 -4 -10z"/>
<path d="M608 5983 c3 -23 8 -31 14 -25 6 6 17 8 26 4 12 -4 12 0 -4 21 -29
40 -40 40 -36 0z"/>
<path d="M560 5960 c0 -7 -12 -24 -27 -38 -17 -16 -23 -27 -16 -29 17 -6 -6
-43 -27 -44 -10 0 -11 -2 -2 -6 19 -7 14 -23 -8 -23 -10 0 -24 -9 -30 -20 -9
-17 -8 -20 7 -20 15 0 16 -2 3 -10 -10 -6 -11 -10 -2 -10 6 0 12 -6 12 -13 0
-8 12 -15 28 -15 42 -3 61 -7 72 -18 7 -7 0 -10 -22 -7 -18 1 -27 0 -20 -3 6
-3 10 -9 7 -13 -2 -5 7 -6 20 -3 36 7 30 -13 -7 -26 -26 -9 -27 -11 -6 -7 15
3 29 1 32 -4 3 -4 18 -6 33 -4 25 4 26 3 9 -8 -10 -6 -39 -13 -65 -15 -27 -2
-41 0 -33 5 11 7 10 10 -3 15 -27 10 -38 7 -32 -8 3 -8 -1 -17 -9 -20 -8 -3
-14 -1 -14 3 0 10 -61 51 -75 51 -4 0 4 -9 18 -20 14 -11 30 -20 35 -20 5 0
12 -9 15 -20 5 -19 37 -29 37 -12 0 10 88 8 113 -2 11 -5 17 -4 17 4 0 6 4 8
10 5 6 -3 7 1 4 9 -3 9 -1 16 6 16 6 0 8 5 4 12 -5 8 -2 9 9 5 9 -3 22 0 29 7
7 7 15 13 18 14 37 8 55 32 25 32 -8 0 -15 -8 -15 -17 0 -13 -3 -14 -11 -6 -9
9 -8 18 4 37 9 14 13 27 8 30 -5 4 -7 14 -4 25 3 10 -2 21 -10 24 -10 4 -13
-1 -9 -19 3 -17 -2 -32 -17 -45 -24 -23 -27 -39 -7 -39 8 0 18 -5 22 -12 5 -7
2 -9 -9 -5 -9 3 -18 1 -20 -6 -3 -9 -8 -9 -18 1 -7 6 -8 12 -3 12 9 0 10 19 5
49 -1 3 -8 -4 -16 -15 -15 -19 -16 -19 -31 4 -10 13 -27 22 -41 22 -18 0 -23
4 -20 14 3 8 -2 17 -11 21 -14 5 -14 7 -2 15 10 7 11 10 3 10 -7 0 -13 7 -13
15 0 8 5 15 11 15 7 0 9 9 6 21 -4 16 -2 19 10 15 11 -4 13 -2 9 9 -3 8 0 15
6 15 7 0 7 4 -1 14 -12 14 -1 29 28 38 10 3 10 6 -3 17 -12 10 -16 11 -16 1z
m-57 -169 c5 -22 -1 -33 -14 -25 -12 7 -12 44 0 44 5 0 11 -9 14 -19z"/>
<path d="M723 5950 c1 -11 5 -20 9 -20 4 0 8 9 8 20 0 11 -4 20 -9 20 -6 0 -9
-9 -8 -20z"/>
<path d="M760 5940 c0 -5 5 -10 11 -10 5 0 7 5 4 10 -3 6 -8 10 -11 10 -2 0
-4 -4 -4 -10z"/>
<path d="M671 5907 c-1 -16 5 -30 14 -33 8 -4 15 -15 15 -25 0 -24 15 -24 32
-1 7 11 20 21 28 25 12 4 12 6 -2 7 -17 2 -29 5 -45 10 -5 1 3 6 17 10 23 7
21 8 -12 9 -20 1 -39 7 -41 14 -3 6 -6 -1 -6 -16z"/>
<path d="M1030 5920 c0 -5 5 -10 11 -10 5 0 7 5 4 10 -3 6 -8 10 -11 10 -2 0
-4 -4 -4 -10z"/>
<path d="M573 5892 c0 -20 4 -31 11 -27 6 3 19 8 29 11 26 10 20 25 -7 18 -18
-4 -25 -1 -29 13 -2 10 -4 3 -4 -15z"/>
<path d="M660 5849 c0 -5 5 -7 10 -4 6 3 10 8 10 11 0 2 -4 4 -10 4 -5 0 -10
-5 -10 -11z"/>
<path d="M612 5842 c-7 -5 -10 -16 -6 -25 7 -19 19 -14 34 14 12 21 -3 26 -28
11z"/>
<path d="M766 5835 c4 -8 12 -15 20 -15 8 0 14 7 14 15 0 8 -9 15 -20 15 -13
0 -18 -5 -14 -15z"/>
<path d="M948 5823 c7 -3 16 -2 19 1 4 3 -2 6 -13 5 -11 0 -14 -3 -6 -6z"/>
<path d="M878 5808 c9 -9 15 -9 24 0 9 9 7 12 -12 12 -19 0 -21 -3 -12 -12z"/>
<path d="M920 5795 c0 -8 2 -15 4 -15 2 0 6 7 10 15 3 8 1 15 -4 15 -6 0 -10
-7 -10 -15z"/>
<path d="M820 5790 c0 -5 5 -10 12 -10 6 0 3 -8 -7 -20 -10 -11 -22 -17 -26
-14 -5 3 -9 -4 -9 -15 0 -12 5 -21 10 -21 6 0 10 4 10 9 0 4 11 19 24 33 24
23 24 24 5 36 -11 7 -19 8 -19 2z"/>
<path d="M566 5782 c-3 -6 -1 -14 5 -17 14 -9 20 -2 10 14 -6 8 -11 9 -15 3z"/>
<path d="M728 5765 c2 -14 8 -25 12 -25 10 0 1 38 -10 45 -4 2 -5 -7 -2 -20z"/>
<path d="M610 5770 c0 -5 5 -10 10 -10 6 0 10 5 10 10 0 6 -4 10 -10 10 -5 0
-10 -4 -10 -10z"/>
<path d="M885 5760 c-3 -5 1 -10 10 -10 9 0 13 5 10 10 -3 6 -8 10 -10 10 -2
0 -7 -4 -10 -10z"/>
<path d="M930 5755 c0 -8 5 -15 10 -15 6 0 10 7 10 15 0 8 -4 15 -10 15 -5 0
-10 -7 -10 -15z"/>
<path d="M420 5750 c0 -5 5 -10 10 -10 6 0 10 5 10 10 0 6 -4 10 -10 10 -5 0
-10 -4 -10 -10z"/>
<path d="M1075 5750 c3 -5 8 -10 11 -10 2 0 4 5 4 10 0 6 -5 10 -11 10 -5 0
-7 -4 -4 -10z"/>
<path d="M645 5740 c3 -5 8 -10 11 -10 2 0 4 5 4 10 0 6 -5 10 -11 10 -5 0 -7
-4 -4 -10z"/>
<path d="M973 5743 c-20 -7 -15 -23 6 -23 11 0 27 -10 35 -22 9 -12 16 -18 16
-12 0 5 -6 16 -12 23 -7 6 -13 17 -13 23 0 13 -15 18 -32 11z"/>
<path d="M870 5730 c0 -5 -7 -10 -15 -10 -9 0 -18 -8 -22 -17 -3 -10 -15 -26
-27 -35 -26 -21 -13 -35 18 -19 14 8 23 21 22 34 -1 15 5 22 19 22 11 0 21 8
23 18 2 9 -1 17 -7 17 -6 0 -11 -4 -11 -10z"/>
<path d="M408 5705 c-5 -26 13 -45 45 -45 30 0 65 24 49 34 -7 4 -12 2 -12 -3
0 -6 -4 -11 -9 -11 -5 0 -8 6 -7 13 0 6 -3 13 -9 14 -5 0 -9 -3 -7 -8 1 -5 -2
-9 -8 -9 -5 0 -10 8 -10 18 0 26 -27 23 -32 -3z"/>
<path d="M745 5720 c-3 -5 -2 -10 4 -10 5 0 13 5 16 10 3 6 2 10 -4 10 -5 0
-13 -4 -16 -10z"/>
<path d="M1050 5680 c-8 -5 -12 -12 -9 -15 8 -8 39 5 39 16 0 11 -11 11 -30
-1z"/>
<path d="M875 5670 c-17 -7 -14 -9 13 -9 20 -1 31 3 27 9 -7 12 -13 12 -40 0z"/>
<path d="M729 5651 c12 -8 51 -4 51 5 0 2 -15 4 -32 4 -23 0 -29 -3 -19 -9z"/>
<path d="M825 5624 c-21 -20 -30 -22 -41 -13 -9 8 -14 8 -14 1 0 -6 5 -14 10
-17 17 -10 11 -27 -7 -21 -10 3 -31 -1 -47 -9 -21 -11 -31 -12 -36 -4 -5 7
-10 4 -15 -8 -5 -10 -8 -20 -8 -23 1 -3 4 -22 7 -42 7 -42 2 -46 -28 -20 -20
16 -20 16 -7 0 12 -16 11 -18 -9 -18 -18 0 -21 4 -17 20 4 17 2 20 -15 14 -18
-5 -20 -3 -15 15 3 11 1 23 -3 26 -13 8 -25 -16 -25 -49 0 -17 -6 -31 -15 -33
-13 -4 -13 -3 0 6 13 10 13 12 0 21 -13 9 -13 11 0 20 8 5 10 10 4 10 -7 0
-15 7 -18 16 -3 8 -2 12 3 9 5 -3 12 -1 16 5 3 5 1 10 -5 10 -8 0 -7 6 1 21 6
12 7 19 1 15 -5 -3 -15 1 -22 9 -12 15 -35 11 -25 -5 3 -4 -2 -10 -10 -14 -22
-8 -19 -28 3 -22 16 5 18 1 18 -29 -1 -19 -6 -35 -13 -35 -6 0 -9 9 -5 22 3
14 2 19 -7 14 -11 -7 -41 15 -41 30 0 4 8 13 18 21 15 13 15 14 -10 10 -21 -3
-28 0 -28 12 0 10 -6 26 -14 37 -12 15 -17 17 -27 7 -11 -11 -10 -13 4 -13 9
0 17 -5 17 -11 0 -7 -10 -9 -25 -7 -25 5 -27 3 -28 -29 -1 -10 -6 -21 -11 -25
-15 -10 12 -37 33 -31 12 3 20 -2 24 -16 6 -25 29 -29 25 -5 -2 10 3 19 10 21
6 3 12 -2 12 -10 0 -9 4 -17 10 -19 6 -2 6 -8 0 -18 -8 -13 -10 -12 -10 3 0
12 -4 16 -12 10 -7 -4 -30 -8 -51 -8 -32 -1 -37 2 -35 19 4 25 -17 32 -26 9
-4 -10 -2 -19 3 -21 6 -2 11 -11 11 -19 0 -9 6 -13 15 -10 8 4 17 2 20 -3 3
-4 -13 -6 -35 -4 -24 3 -40 1 -40 -6 0 -5 3 -9 8 -8 4 2 8 -1 10 -7 1 -5 -2
-10 -7 -10 -17 0 -24 -14 -16 -32 12 -28 14 -44 4 -37 -5 3 -9 -3 -9 -13 0
-14 -2 -15 -9 -4 -6 9 -12 -9 -20 -53 -7 -37 -9 -71 -6 -76 4 -6 2 -10 -3 -10
-5 0 -12 -34 -16 -77 -5 -58 -4 -78 6 -85 9 -6 10 -10 2 -15 -12 -9 -12 -5
-54 -588 -16 -225 -36 -502 -45 -615 -74 -1004 -78 -1080 -60 -1101 11 -11 13
-19 7 -19 -7 0 -12 6 -12 13 0 8 -4 7 -10 -3 -16 -24 -12 -58 8 -63 15 -4 15
-5 0 -6 -13 -1 -18 -16 -23 -79 -4 -42 -10 -107 -14 -144 -4 -39 -3 -74 2 -84
7 -12 6 -15 -2 -9 -9 5 -11 -45 -8 -210 3 -173 7 -219 18 -226 11 -7 11 -9 1
-9 -7 0 -11 -4 -8 -9 4 -5 8 -32 11 -60 8 -81 70 -308 113 -417 52 -132 123
-274 134 -268 4 3 5 -1 2 -9 -6 -16 119 -205 204 -309 144 -175 313 -326 505
-451 l57 -37 0 794 c-1 614 -3 796 -13 800 -9 5 -9 7 0 12 8 4 12 57 13 183 1
187 13 280 51 393 98 293 329 545 617 672 105 46 239 75 385 82 209 10 365
-23 554 -120 101 -52 102 -52 108 -29 3 13 10 23 15 23 12 0 12 -3 1 -34 -9
-22 -5 -29 52 -73 34 -26 87 -75 117 -109 43 -48 60 -60 77 -57 18 4 21 1 16
-16 -4 -15 -1 -21 11 -21 8 0 13 -6 11 -12 -2 -7 7 -21 21 -31 20 -15 28 -16
39 -7 8 7 15 19 15 26 0 18 24 18 40 -1 7 -8 16 -12 21 -9 5 2 16 -4 26 -16
18 -20 39 -28 28 -10 -4 6 1 7 11 3 13 -5 16 -3 11 10 -4 10 -2 17 5 17 7 0 3
7 -8 16 -17 14 -17 15 -1 10 14 -5 17 -1 14 21 -5 36 -37 41 -37 6 0 -20 -4
-24 -19 -20 -10 2 -25 0 -34 -4 -10 -6 -18 -5 -22 2 -4 6 2 13 14 16 23 6 28
19 9 26 -7 3 -1 6 15 6 24 1 27 4 23 26 -3 14 -1 23 5 20 5 -4 9 -3 10 2 0 4
2 18 5 31 3 15 -1 22 -11 22 -9 0 -20 12 -25 26 -13 34 -13 39 5 24 8 -7 13
-16 10 -20 -3 -4 2 -11 11 -14 12 -5 14 -1 9 15 -6 17 -4 20 6 13 31 -18 37
-28 23 -39 -18 -14 -6 -63 18 -71 10 -3 25 0 33 6 11 9 15 9 15 1 0 -6 5 -11
10 -11 6 0 10 7 10 16 0 10 6 14 14 11 10 -4 13 -1 10 7 -3 9 6 18 23 25 24 9
20 10 -30 6 -67 -5 -81 -11 -72 -34 4 -12 3 -13 -5 -5 -14 14 8 67 24 56 18
-10 46 -13 46 -3 0 5 -10 12 -22 16 -14 4 -18 8 -10 12 6 2 9 9 6 15 -4 6 -1
9 5 7 7 -3 13 -9 13 -14 0 -22 21 -34 47 -29 21 4 30 1 35 -11 5 -15 9 -15 23
-4 8 8 27 12 41 11 13 -2 22 0 19 6 -4 5 -21 9 -40 10 -57 2 -86 18 -80 43 3
12 14 24 24 26 11 3 16 9 13 14 -3 5 0 9 5 9 6 0 11 -7 11 -15 0 -8 7 -15 16
-15 11 0 14 5 9 18 -17 42 -18 52 -1 46 9 -3 13 -11 10 -16 -4 -6 4 -8 17 -6
13 2 23 9 22 16 -4 17 17 15 23 -3 4 -8 16 -14 28 -14 17 1 17 2 3 6 -22 6
-12 23 14 23 11 0 17 5 14 10 -3 6 1 10 10 10 11 0 15 5 11 15 -3 8 0 15 6 15
7 0 7 4 0 13 -8 10 -6 13 9 13 14 0 17 -5 13 -18 -4 -13 0 -18 15 -18 11 0 23
5 26 10 3 6 14 9 23 9 15 -1 15 -2 0 -6 -25 -6 -23 -33 2 -33 13 0 20 7 20 19
0 24 39 39 51 20 6 -10 9 -11 9 -1 0 6 5 12 11 12 6 0 9 -7 5 -15 -3 -9 0 -15
9 -15 15 0 30 34 20 49 -3 5 -1 12 5 16 20 12 -3 27 -32 21 -25 -5 -29 -4 -19
8 8 10 9 16 1 21 -6 3 -8 11 -5 16 10 16 32 10 38 -11 3 -14 14 -20 32 -20 14
0 24 4 20 10 -3 5 -13 7 -23 4 -14 -5 -15 -4 -2 5 8 6 27 11 43 11 15 0 27 4
27 10 0 5 -6 7 -14 4 -10 -4 -12 2 -9 20 4 18 -1 27 -17 36 -12 6 -24 9 -28 6
-3 -3 0 -6 7 -6 8 0 11 -8 8 -20 -3 -11 -1 -20 5 -20 5 0 6 -4 3 -10 -3 -5
-13 -10 -21 -10 -10 0 -13 7 -8 25 5 20 3 24 -10 19 -12 -5 -16 0 -16 16 0 13
-8 29 -17 36 -10 7 -14 16 -9 21 5 4 11 2 13 -4 5 -15 43 -18 43 -4 0 13 -26
32 -40 29 -7 -2 -15 3 -17 10 -3 8 1 10 13 5 16 -6 16 -4 -2 20 -21 29 -43 34
-62 15 -9 -9 -12 -9 -12 -1 0 7 9 15 21 18 19 6 20 8 3 26 -9 10 -24 19 -33
20 -11 0 -12 2 -3 6 10 4 10 8 1 19 -6 8 -16 11 -22 7 -5 -3 -7 -1 -4 4 8 13
-17 36 -28 25 -5 -4 -5 -2 -2 4 6 11 -110 129 -203 205 -43 35 -167 125 -188
136 -2 1 14 28 36 60 89 131 189 364 228 529 39 171 60 484 31 468 -8 -5 -8
-2 1 7 13 14 17 65 5 72 -5 3 -17 0 -28 -4 -18 -9 -18 -9 3 -5 12 2 22 0 22
-5 0 -5 -6 -9 -14 -9 -8 0 -16 -6 -18 -12 -3 -7 -7 -2 -10 10 -5 18 -1 25 18
32 20 8 24 15 21 37 -3 22 -9 27 -26 26 -13 -2 -20 1 -16 7 3 6 13 10 21 10
25 0 14 64 -11 68 -11 3 -27 12 -35 21 -19 20 -42 71 -32 71 16 0 29 -16 39
-45 5 -16 18 -32 29 -34 16 -3 17 -1 5 13 -11 13 -11 16 0 16 9 1 7 6 -6 16
-15 11 -17 17 -7 23 9 6 7 13 -8 32 -12 13 -17 25 -11 27 6 2 11 8 11 14 0 6
-7 8 -15 4 -8 -3 -15 -2 -15 3 0 5 -10 11 -22 14 -19 5 -21 4 -8 -6 9 -7 15
-19 15 -27 0 -8 4 -18 9 -22 13 -9 8 -13 -23 -23 -22 -7 -23 -5 -17 18 5 22 3
24 -16 20 -18 -5 -20 -3 -16 21 4 20 2 24 -5 17 -16 -16 -27 -13 -21 4 4 8 12
15 20 15 8 0 14 5 14 10 0 6 -4 10 -9 10 -17 0 -19 40 -3 50 10 5 13 10 8 10
-6 0 -1 7 10 15 13 11 14 13 3 9 -11 -3 -18 2 -22 17 -4 16 -3 19 6 10 17 -17
48 -14 41 4 -5 13 -9 13 -22 3 -13 -11 -15 -10 -9 5 3 9 3 17 -2 17 -18 0 -30
-28 -27 -57 3 -22 0 -33 -11 -37 -8 -4 -13 -13 -9 -21 3 -8 -1 -26 -8 -40
l-14 -26 -16 23 c-18 25 -22 17 -6 -12 7 -13 6 -19 -5 -24 -8 -3 -15 -1 -15 3
0 5 -7 12 -16 15 -12 5 -14 1 -8 -17 4 -12 12 -26 19 -32 8 -6 9 -19 5 -35 -8
-24 -8 -24 -9 -2 -1 12 -7 22 -15 22 -8 0 -23 3 -33 6 -14 4 -15 4 -4 -4 7 -5
11 -15 7 -21 -4 -6 -1 -9 7 -5 8 3 17 -2 21 -12 9 -24 -1 -30 -25 -16 -19 12
-20 11 -17 -10 2 -13 11 -24 23 -27 32 -6 43 -41 14 -41 -6 0 -7 5 -4 10 3 6
-1 10 -9 10 -23 0 -19 -15 7 -28 18 -9 19 -11 4 -11 -10 -1 -32 12 -50 29 -33
31 -51 37 -62 20 -4 -6 -11 -8 -16 -4 -5 3 -7 10 -4 15 4 5 -1 9 -9 9 -9 0
-16 8 -16 17 0 14 -3 14 -19 -4 -13 -13 -18 -29 -14 -42 7 -26 29 -22 26 5 -1
17 0 17 17 -3 10 -13 26 -23 35 -23 9 0 13 -5 10 -11 -4 -6 -13 -8 -21 -5 -7
3 -16 1 -19 -4 -3 -5 -18 -2 -33 6 -15 7 -37 14 -49 14 -12 0 -24 4 -27 9 -4
5 2 7 13 4 10 -3 22 0 25 6 4 6 3 11 -3 11 -6 0 -8 7 -5 15 8 21 -9 19 -36 -5
-13 -12 -29 -19 -36 -16 -7 3 -15 -1 -18 -9 -4 -11 -11 -11 -38 -2 -18 7 -39
18 -46 25 -7 6 -18 13 -23 13 -5 1 -13 2 -18 3 -5 0 -21 14 -35 29 -26 28 -26
28 -27 5 0 -13 -3 -17 -6 -10 -2 6 -11 12 -19 12 -8 0 -14 4 -14 8 0 5 -7 9
-15 9 -9 0 -14 -7 -13 -16 2 -9 10 -16 18 -16 19 0 39 -18 33 -28 -3 -5 5 -4
17 3 12 6 24 9 28 6 3 -3 -1 -6 -9 -6 -12 0 -12 -2 0 -9 18 -12 23 -41 7 -41
-7 0 -17 5 -24 12 -6 6 -15 8 -19 4 -5 -4 5 -18 21 -31 28 -22 28 -23 8 -34
-11 -6 -29 -11 -40 -11 -10 0 -19 -7 -19 -15 0 -8 3 -15 6 -15 17 0 20 -261 4
-345 -35 -187 -132 -367 -260 -485 -36 -34 -49 -41 -71 -35 -42 10 -332 23
-417 18 -287 -16 -549 -86 -820 -217 -82 -41 -154 -75 -160 -77 -7 -3 -11 151
-13 446 -2 248 -3 461 -4 475 0 14 2 49 6 78 6 42 5 52 -7 52 -16 0 -43 28
-35 36 3 3 13 -3 22 -12 22 -21 25 -17 40 55 11 53 11 59 -2 48 -13 -10 -14
-8 -7 12 6 20 4 23 -10 18 -9 -4 -21 -7 -26 -7 -5 0 -18 -9 -30 -21 -19 -19
-23 -20 -37 -6 -14 15 -13 15 6 10 16 -4 22 -1 22 11 0 10 6 13 15 10 11 -4
13 -2 9 9 -4 12 -1 14 15 10 23 -6 81 14 81 28 0 5 -6 6 -13 3 -8 -3 -20 2
-27 11 -8 10 -9 15 -1 15 6 0 11 5 11 10 0 6 -12 10 -26 10 -14 0 -23 -4 -19
-9 12 -20 -15 -21 -35 -1 -21 21 -26 40 -10 40 6 0 10 -7 10 -15 0 -16 25 -21
34 -6 7 10 56 2 56 -10 0 -5 4 -9 9 -9 6 0 9 9 8 20 -1 15 -6 19 -22 14 -19
-5 -19 -4 -3 9 10 8 14 18 10 22 -4 5 -1 5 6 1 7 -4 19 -2 27 4 12 10 15 10
15 1 0 -8 5 -7 15 3 18 18 20 33 3 18 -20 -15 -78 -6 -93 14 -13 18 -14 17
-26 -9 -8 -17 -20 -27 -33 -27 -15 0 -17 3 -8 9 10 6 8 10 -8 14 -16 4 -21 11
-16 22 3 9 2 14 -3 10 -5 -3 -17 -2 -26 1 -14 6 -14 8 0 24 8 9 12 20 8 23 -3
4 1 7 10 7 10 0 17 4 17 9 0 4 -11 6 -25 3 -14 -2 -22 -8 -19 -13 3 -5 -2 -12
-11 -15 -10 -4 -13 -13 -10 -25 5 -13 1 -19 -10 -19 -9 0 -13 5 -10 10 3 6 1
10 -4 10 -18 0 -12 -19 9 -30 11 -6 18 -15 15 -20 -3 -5 -1 -11 5 -15 6 -4 8
-11 4 -16 -3 -5 -10 -7 -15 -3 -5 3 -7 9 -4 14 3 5 1 11 -5 15 -5 3 -10 -1
-10 -9 0 -9 -5 -16 -11 -16 -6 0 -9 7 -6 15 4 8 2 17 -3 20 -6 4 -10 -1 -10
-10 0 -12 -5 -15 -16 -11 -9 3 -19 6 -22 6 -4 0 -1 4 7 9 12 8 12 12 2 25 -17
20 -32 21 -25 1 4 -8 1 -15 -6 -15 -9 0 -8 -7 3 -24 13 -19 14 -26 4 -35 -7
-5 -19 -6 -26 -2 -10 6 -9 10 4 15 14 5 15 9 5 21 -6 7 -18 11 -27 8 -12 -5
-12 -7 -1 -14 7 -5 8 -9 2 -9 -6 0 -13 3 -17 6 -8 9 4 35 13 29 5 -3 11 -1 15
5 3 5 0 10 -7 10 -7 0 -2 7 11 16 16 11 20 19 12 27 -7 7 -6 14 5 21 20 15 8
47 -13 39 -10 -4 -14 -2 -10 4 4 6 2 13 -4 15 -6 2 -7 11 -3 22 6 17 9 17 18
3 12 -16 70 -12 60 4 -3 5 1 9 8 9 10 0 9 3 -2 11 -13 9 -13 10 2 6 9 -3 19 1
22 9 9 24 7 29 -6 16 -16 -16 -28 -15 -28 3 0 8 9 15 20 15 11 0 20 4 20 9 0
21 -19 19 -45 -5z m-425 -49 c-11 -13 -10 -18 5 -29 16 -11 15 -13 -12 -13
-21 0 -29 5 -29 19 0 10 6 18 12 18 7 0 15 7 18 16 4 9 9 14 13 11 3 -4 0 -14
-7 -22z m320 -55 c0 -5 -7 -10 -16 -10 -8 0 -12 5 -9 10 3 6 10 10 16 10 5 0
9 -4 9 -10z m37 -45 c0 -8 -4 -15 -9 -15 -4 0 -8 7 -8 15 0 8 4 15 8 15 5 0 9
-7 9 -15z m-329 -35 c2 -16 -56 -55 -67 -45 -3 4 2 11 12 16 9 6 15 14 12 20
-4 5 -1 9 5 9 6 0 8 5 4 11 -4 7 1 10 12 7 10 -2 20 -10 22 -18z m285 -14 c17
-13 16 -14 -7 -12 -15 0 -26 7 -26 14 0 15 10 15 33 -2z m-283 -26 c0 -5 -2
-10 -4 -10 -3 0 -8 5 -11 10 -3 6 -1 10 4 10 6 0 11 -4 11 -10z m3021 -30 c5
0 9 -8 9 -19 0 -11 10 -22 23 -25 21 -7 21 -7 2 -15 -12 -5 -26 -4 -34 3 -9 7
-8 1 3 -16 21 -33 25 -34 42 -10 13 16 14 15 11 -5 -4 -33 -14 -38 -41 -23
-25 13 -36 35 -42 85 -4 36 7 70 13 43 3 -10 9 -18 14 -18z m-3048 2 c-3 -14
-12 -17 -39 -14 -19 2 -34 9 -34 14 0 5 13 7 29 3 17 -3 32 -2 36 4 10 17 14
13 8 -7z m547 2 c0 -2 -7 -4 -15 -4 -8 0 -15 4 -15 10 0 5 7 7 15 4 8 -4 15
-8 15 -10z m2460 -8 c0 -18 -10 -25 -25 -20 -7 3 -11 14 -8 24 5 20 33 16 33
-4z m-2820 10 c0 -3 -4 -8 -10 -11 -5 -3 -10 -1 -10 4 0 6 5 11 10 11 6 0 10
-2 10 -4z m65 -26 c3 -5 1 -10 -4 -10 -6 0 -11 5 -11 10 0 6 2 10 4 10 3 0 8
-4 11 -10z m-233 -10 c17 0 18 -2 4 -15 -13 -13 -19 -13 -36 -3 -24 15 -27 33
-4 24 9 -3 25 -6 36 -6z m98 -8 c0 -10 -6 -24 -12 -31 -11 -11 -9 -12 11 -6
17 5 22 4 19 -6 -2 -7 -13 -13 -24 -14 -10 -2 -27 -6 -36 -10 -11 -4 -18 -3
-18 5 0 6 4 9 9 6 5 -3 11 0 13 7 7 17 -2 38 -13 32 -5 -4 -6 1 -3 10 5 12 9
13 20 4 13 -10 18 -6 15 14 0 4 4 7 9 7 6 0 10 -8 10 -18z m490 8 c8 -5 12
-11 10 -14 -3 -2 -14 2 -24 10 -22 15 -10 19 14 4z m-390 -4 c0 -11 -19 -15
-25 -6 -3 5 1 10 9 10 9 0 16 -2 16 -4z m295 -6 c3 5 13 10 22 10 12 0 13 -3
4 -13 -6 -8 -7 -18 -3 -22 4 -5 0 -4 -8 1 -8 4 -19 9 -25 10 -5 0 -16 2 -22 2
-7 1 -13 7 -13 12 0 7 6 7 19 0 13 -7 22 -7 26 0z m-550 -10 c3 -6 -1 -7 -9
-4 -18 7 -21 14 -7 14 6 0 13 -4 16 -10z m3020 -10 c4 -11 16 -21 28 -21 17
-1 18 -2 5 -6 -10 -2 -18 -10 -18 -16 0 -7 -4 -6 -10 3 -8 13 -10 13 -10 -2 0
-12 -5 -15 -17 -11 -11 4 -12 8 -5 11 22 7 12 23 -10 17 -23 -6 -23 -6 -3 10
11 9 19 21 18 26 -6 19 16 8 22 -11z m-2688 4 c-3 -3 -12 -4 -19 -1 -8 3 -5 6
6 6 11 1 17 -2 13 -5z m53 -8 c0 -8 -4 -18 -10 -21 -5 -3 -10 3 -10 14 0 12 5
21 10 21 6 0 10 -6 10 -14z m17 -8 c-3 -8 -6 -5 -6 6 -1 11 2 17 5 13 3 -3 4
-12 1 -19z m75 -12 c-4 -6 -8 -23 -7 -37 1 -20 -3 -25 -17 -21 -10 2 -18 0
-18 -6 0 -6 -9 -8 -20 -5 -11 3 -20 10 -20 16 0 13 -24 -9 -26 -23 -1 -6 -2
-14 -3 -20 -1 -13 -41 -13 -41 0 0 5 7 7 15 4 17 -7 21 11 5 21 -5 3 -10 11
-10 18 0 8 3 8 11 0 13 -13 39 6 39 26 0 6 7 11 15 11 8 0 15 5 15 10 0 6 5
10 11 10 5 0 8 -4 5 -9 -4 -5 3 -7 15 -4 14 4 19 11 16 25 -5 16 -3 17 9 7 8
-7 11 -16 6 -23z m-267 14 c-3 -5 -10 -10 -16 -10 -5 0 -9 5 -9 10 0 6 7 10
16 10 8 0 12 -4 9 -10z m-270 -30 c3 -5 1 -10 -4 -10 -6 0 -11 5 -11 10 0 6 2
10 4 10 3 0 8 -4 11 -10z m635 6 c0 -2 -7 -6 -15 -10 -8 -3 -15 -1 -15 4 0 6
7 10 15 10 8 0 15 -2 15 -4z m52 -8 c2 -6 15 -12 28 -13 13 -1 26 -7 28 -13 2
-7 -8 -9 -27 -7 -19 3 -31 0 -31 -7 0 -9 -3 -9 -12 0 -17 17 -33 15 -18 -3 13
-16 12 -17 -42 -19 -15 -1 -25 0 -23 2 2 3 0 14 -6 24 -8 14 -8 23 0 31 8 8
11 5 11 -12 0 -18 4 -22 18 -16 9 4 27 10 39 12 13 3 20 10 16 19 -3 8 -1 14
5 14 6 0 12 -5 14 -12z m-349 -17 c-3 -11 -11 -22 -19 -25 -17 -7 -18 -1 -2
24 16 25 28 26 21 1z m-118 -9 c-3 -3 -11 0 -18 7 -9 10 -8 11 6 5 10 -3 15
-9 12 -12z m75 2 c0 -2 -7 -4 -15 -4 -8 0 -15 4 -15 10 0 5 7 7 15 4 8 -4 15
-8 15 -10z m2328 -7 c10 4 13 2 8 -5 -4 -7 -14 -12 -22 -12 -17 0 -18 -12 -2
-28 9 -9 9 -12 -3 -12 -8 0 -20 9 -27 20 -10 16 -10 23 0 34 7 8 17 11 22 6 5
-5 15 -6 24 -3z m322 -8 c0 -6 -4 -7 -10 -4 -5 3 -10 11 -10 16 0 6 5 7 10 4
6 -3 10 -11 10 -16z m189 12 c7 -5 9 -11 5 -14 -5 -3 -15 1 -22 9 -14 16 -5
18 17 5z m113 -6 c0 -5 -5 -11 -11 -13 -6 -2 -11 4 -11 13 0 9 5 15 11 13 6
-2 11 -8 11 -13z m-3267 -5 c3 -5 1 -10 -4 -10 -6 0 -11 5 -11 10 0 6 2 10 4
10 3 0 8 -4 11 -10z m35 -11 c0 -6 -4 -7 -10 -4 -5 3 -10 11 -10 16 0 6 5 7
10 4 6 -3 10 -11 10 -16z m3080 17 c0 -3 -4 -8 -10 -11 -5 -3 -10 -1 -10 4 0
6 5 11 10 11 6 0 10 -2 10 -4z m115 -6 c3 -5 1 -10 -4 -10 -6 0 -11 5 -11 10
0 6 2 10 4 10 3 0 8 -4 11 -10z m-2940 -10 c-3 -5 -12 -7 -20 -3 -9 3 -15 -1
-15 -10 0 -9 -5 -19 -12 -23 -8 -5 -9 -2 -5 9 4 10 0 20 -10 26 -12 6 -5 9 26
9 23 0 39 -3 36 -8z m2503 3 c15 -3 19 -8 12 -13 -14 -9 -60 -1 -60 11 0 10
16 11 48 2z m-2388 -7 c0 -11 -19 -15 -25 -6 -3 5 1 10 9 10 9 0 16 -2 16 -4z
m180 -6 c0 -5 -5 -10 -11 -10 -5 0 -7 5 -4 10 3 6 8 10 11 10 2 0 4 -4 4 -10z
m-568 -22 c-11 -11 -32 -3 -32 12 0 4 9 6 21 3 13 -4 17 -9 11 -15z m2671 8
c3 -8 2 -16 -3 -18 -5 -2 -11 -20 -12 -40 -2 -21 -7 -38 -11 -38 -5 0 -6 -4
-3 -9 11 -17 -20 -32 -45 -22 -13 5 -18 10 -11 10 7 1 10 6 6 13 -5 7 -2 9 8
5 9 -3 18 -3 21 0 9 8 -25 42 -37 37 -7 -3 -12 4 -12 15 0 14 4 17 12 10 28
-23 71 6 65 44 -2 13 17 7 22 -7z m157 4 c0 -5 -4 -10 -10 -10 -5 0 -10 5 -10
10 0 6 5 10 10 10 6 0 10 -4 10 -10z m425 0 c-3 -5 -11 -10 -16 -10 -6 0 -7 5
-4 10 3 6 11 10 16 10 6 0 7 -4 4 -10z m-3190 -38 c-21 -10 -30 -11 -39 -2 -8
8 -7 10 7 5 10 -4 17 -2 17 5 0 6 5 8 12 4 8 -5 9 -2 4 11 -6 15 -4 16 10 5
14 -12 13 -15 -11 -28z m3050 28 c3 -5 1 -10 -4 -10 -6 0 -11 5 -11 10 0 6 2
10 4 10 3 0 8 -4 11 -10z m-2575 -9 c0 -6 -4 -13 -10 -16 -5 -3 -10 1 -10 9 0
9 5 16 10 16 6 0 10 -4 10 -9z m89 -7 c2 -2 -3 -4 -12 -4 -9 0 -17 -7 -17 -16
0 -10 6 -14 15 -10 8 3 15 3 15 1 0 -10 -35 -45 -44 -45 -5 0 -6 3 -3 6 9 9
-12 46 -22 40 -4 -3 -8 2 -8 10 0 9 6 13 16 9 10 -3 9 1 -4 11 -19 15 -18 15
20 8 22 -3 42 -8 44 -10z m2236 7 c18 -7 17 -10 -14 -25 -31 -17 -33 -17 -27
-1 3 9 6 21 6 26 0 11 7 11 35 0z m-2395 -11 c0 -5 -4 -10 -9 -10 -6 0 -13 5
-16 10 -3 6 1 10 9 10 9 0 16 -4 16 -10z m2318 -8 c2 -7 -3 -12 -11 -12 -7 0
-26 -17 -40 -37 -23 -31 -27 -34 -27 -16 0 11 8 24 17 27 15 6 15 8 3 17 -12
7 -11 10 8 15 12 4 22 11 22 16 0 13 23 5 28 -10z m380 6 c-6 -18 -25 -21 -25
-3 0 8 7 15 15 15 7 0 12 -5 10 -12z m79 6 c-3 -3 -12 -4 -19 -1 -8 3 -5 6 6
6 11 1 17 -2 13 -5z m-2967 -14 c0 -5 -2 -10 -4 -10 -3 0 -8 5 -11 10 -3 6 -1
10 4 10 6 0 11 -4 11 -10z m2720 0 c0 -5 -5 -10 -11 -10 -5 0 -7 5 -4 10 3 6
8 10 11 10 2 0 4 -4 4 -10z m-2303 -22 c-3 -8 -6 -5 -6 6 -1 11 2 17 5 13 3
-3 4 -12 1 -19z m2403 12 c0 -5 6 -10 14 -10 7 0 16 -9 19 -20 6 -23 -2 -25
-25 -7 -19 15 -31 47 -18 47 6 0 10 -4 10 -10z m146 3 c-3 -4 4 -13 16 -21 13
-7 15 -11 6 -8 -10 3 -18 -2 -21 -12 -3 -12 -5 -11 -6 6 -1 13 -7 22 -17 22
-8 0 -12 5 -9 10 3 6 13 10 22 10 9 0 13 -3 9 -7z m-2801 -13 c3 -5 1 -10 -4
-10 -6 0 -11 5 -11 10 0 6 2 10 4 10 3 0 8 -4 11 -10z m45 0 c8 -5 11 -10 5
-10 -5 0 -17 5 -25 10 -8 5 -10 10 -5 10 6 0 17 -5 25 -10z m2050 0 l-25 -8
23 -7 c18 -6 20 -10 10 -16 -11 -8 -11 -10 0 -18 11 -7 11 -9 -2 -14 -9 -4
-16 -1 -16 6 0 7 -5 19 -10 27 -9 13 -11 13 -20 0 -8 -13 -10 -13 -10 2 0 20
27 38 55 37 16 -1 16 -2 -5 -9z m345 0 c-3 -5 -13 -10 -21 -10 -8 0 -12 5 -9
10 3 6 13 10 21 10 8 0 12 -4 9 -10z m-90 -10 c3 -6 -1 -7 -9 -4 -18 7 -21 14
-7 14 6 0 13 -4 16 -10z m-2768 -6 c-3 -3 -12 -4 -19 -1 -8 3 -5 6 6 6 11 1
17 -2 13 -5z m508 -4 c3 -5 1 -10 -4 -10 -6 0 -11 5 -11 10 0 6 2 10 4 10 3 0
8 -4 11 -10z m2362 -16 c-3 -4 -14 -3 -24 0 -15 6 -15 8 -3 16 16 10 39 -4 27
-16z m53 16 c-8 -5 -19 -10 -25 -10 -5 0 -3 5 5 10 8 5 20 10 25 10 6 0 3 -5
-5 -10z m-2720 -14 c0 -7 -9 -16 -20 -19 -11 -3 -20 -1 -20 4 0 5 7 9 15 9 8
0 15 5 15 10 0 6 2 10 5 10 3 0 5 -6 5 -14z m443 7 c-7 -2 -19 -2 -25 0 -7 3
-2 5 12 5 14 0 19 -2 13 -5z m2018 -25 c-4 -12 -14 -24 -22 -27 -12 -4 -12 -2
-1 12 8 9 11 21 7 27 -3 5 1 10 9 10 12 0 13 -5 7 -22z m129 12 c0 -5 -5 -10
-11 -10 -5 0 -7 5 -4 10 3 6 8 10 11 10 2 0 4 -4 4 -10z m384 -11 c-6 -11 -24
-2 -24 11 0 5 7 7 15 4 8 -4 12 -10 9 -15z m-2894 -4 c7 -9 8 -15 2 -15 -5 0
-12 7 -16 15 -3 8 -4 15 -2 15 2 0 9 -7 16 -15z m60 11 c0 -3 -4 -8 -10 -11
-5 -3 -10 -1 -10 4 0 6 5 11 10 11 6 0 10 -2 10 -4z m135 -7 c11 -17 -1 -21
-15 -4 -8 9 -8 15 -2 15 6 0 14 -5 17 -11z m132 -16 c-9 -9 -20 -13 -24 -9 -4
4 -1 11 7 16 25 16 35 11 17 -7z m2133 8 c0 -5 -7 -11 -15 -15 -15 -5 -20 5
-8 17 9 10 23 9 23 -2z m295 0 c-3 -5 -1 -12 5 -16 5 -3 10 -11 10 -17 0 -7
-6 -6 -15 2 -17 14 -20 40 -4 40 5 0 8 -4 4 -9z m-165 -22 c0 -5 -4 -9 -10 -9
-5 0 -10 7 -10 16 0 8 5 12 10 9 6 -3 10 -10 10 -16z m-2440 1 c0 -5 -4 -10
-9 -10 -6 0 -13 5 -16 10 -3 6 1 10 9 10 9 0 16 -4 16 -10z m2374 -20 c-6 -6
-10 -2 -11 12 -2 16 1 18 10 9 7 -7 8 -14 1 -21z m-2644 10 c0 -5 -5 -10 -11
-10 -5 0 -7 5 -4 10 3 6 8 10 11 10 2 0 4 -4 4 -10z m2945 0 c-3 -5 -14 -10
-23 -9 -14 0 -13 2 3 9 27 11 27 11 20 0z m79 -17 c-17 -18 -29 -11 -21 11 4
9 13 13 21 10 14 -5 14 -8 0 -21z m-2656 10 c-10 -2 -18 -11 -18 -19 0 -8 -4
-14 -10 -14 -11 0 -14 23 -3 33 3 4 16 6 27 6 17 -1 18 -2 4 -6z m122 -24 c0
-14 -17 -10 -23 5 -4 10 -1 13 9 9 7 -3 14 -9 14 -14z m2220 5 c0 -8 -5 -12
-10 -9 -6 4 -8 11 -5 16 9 14 15 11 15 -7z m95 6 c3 -5 -1 -10 -9 -10 -9 0
-16 5 -16 10 0 6 4 10 9 10 6 0 13 -4 16 -10z m-300 -9 c3 -5 1 -12 -4 -15 -5
-3 -11 1 -15 9 -6 16 9 21 19 6z m45 5 c0 -3 -4 -8 -10 -11 -5 -3 -10 -1 -10
4 0 6 5 11 10 11 6 0 10 -2 10 -4z m-2110 -20 c0 -3 -4 -8 -10 -11 -5 -3 -10
-1 -10 4 0 6 5 11 10 11 6 0 10 -2 10 -4z m2195 -7 c11 -16 1 -19 -13 -3 -7 8
-8 14 -3 14 5 0 13 -5 16 -11z m385 7 c0 -2 -9 -6 -20 -9 -11 -3 -20 -1 -20 4
0 5 9 9 20 9 11 0 20 -2 20 -4z m53 -29 c-10 -12 -19 -24 -20 -26 -2 -2 -3 5
-3 17 0 13 6 22 16 22 9 0 12 5 8 12 -5 7 -3 8 5 4 9 -6 8 -13 -6 -29z m-3063
-7 c0 -5 -2 -10 -4 -10 -3 0 -8 5 -11 10 -3 6 -1 10 4 10 6 0 11 -4 11 -10z
m2453 3 c-7 -2 -19 -2 -25 0 -7 3 -2 5 12 5 14 0 19 -2 13 -5z m265 -10 c-10
-2 -18 -9 -18 -14 0 -5 -7 -9 -15 -9 -13 0 -14 3 -3 15 7 8 22 14 33 13 17 0
17 -1 3 -5z m-2448 -18 c7 -8 9 -15 6 -15 -4 0 -14 7 -22 15 -9 8 -11 15 -6
15 5 0 15 -7 22 -15z m250 1 c0 -11 -19 -15 -25 -6 -3 5 1 10 9 10 9 0 16 -2
16 -4z m2280 -26 c0 -5 -12 -10 -27 -9 l-28 1 25 8 c14 4 26 8 28 9 1 1 2 -3
2 -9z m278 -50 c-15 -23 -31 -21 -36 3 -3 12 4 17 22 17 24 0 25 -2 14 -20z
m-333 -108 c-3 -3 -11 0 -18 7 -9 10 -8 11 6 5 10 -3 15 -9 12 -12z m160 -122
c3 -5 2 -10 -4 -10 -5 0 -13 5 -16 10 -3 6 -2 10 4 10 5 0 13 -4 16 -10z m277
-1072 c-9 -9 -12 -7 -12 12 0 19 3 21 12 12 9 -9 9 -15 0 -24z m-25 16 c-3 -3
-12 -4 -19 -1 -8 3 -5 6 6 6 11 1 17 -2 13 -5z m47 -69 c3 -8 1 -15 -4 -15 -6
0 -10 7 -10 15 0 8 2 15 4 15 2 0 6 -7 10 -15z m-167 -21 c-3 -3 -12 -4 -19
-1 -8 3 -5 6 6 6 11 1 17 -2 13 -5z m209 -24 c-18 -6 -66 -2 -66 6 0 1 19 2
43 2 28 0 36 -3 23 -8z m33 -35 c9 -8 27 -24 41 -34 21 -16 22 -21 11 -35 -13
-16 -36 -12 -26 4 10 16 -7 39 -37 49 -16 6 -27 15 -23 21 8 14 16 13 34 -5z
m-259 -25 c0 -5 -5 -10 -11 -10 -5 0 -7 5 -4 10 3 6 8 10 11 10 2 0 4 -4 4
-10z m105 -10 c-3 -5 -11 -10 -16 -10 -6 0 -7 5 -4 10 3 6 11 10 16 10 6 0 7
-4 4 -10z m130 0 c-3 -5 -12 -7 -20 -3 -21 7 -19 13 6 13 11 0 18 -4 14 -10z
m35 -25 c-7 -8 -10 -21 -7 -28 4 -10 -2 -13 -20 -9 -18 3 -21 7 -11 13 7 5 9
9 4 9 -15 0 16 30 31 30 13 0 13 -3 3 -15z m-93 -40 c-4 -8 -11 -15 -17 -15
-7 0 -7 6 0 21 13 23 26 19 17 -6z m-377 -5 c0 -5 -2 -10 -4 -10 -3 0 -8 5
-11 10 -3 6 -1 10 4 10 6 0 11 -4 11 -10z m528 -5 c-2 -5 -9 -10 -17 -12 -8
-1 -17 -7 -21 -14 -10 -16 -31 -2 -24 16 8 20 69 31 62 10z m-71 -10 c-4 -8
-2 -17 4 -20 5 -4 7 -11 4 -16 -4 -5 -1 -9 4 -9 6 0 11 -5 11 -12 0 -6 -7 -4
-18 5 -21 19 -42 22 -42 7 0 -5 8 -10 17 -10 9 0 14 -3 11 -6 -10 -9 -88 18
-88 31 0 15 44 28 48 15 2 -6 11 -10 19 -10 9 0 13 6 10 14 -6 15 1 26 16 26
5 0 7 -7 4 -15z m-417 -15 c0 -12 -7 -20 -17 -20 -14 0 -15 2 -4 9 7 5 10 14
7 20 -4 6 -2 11 3 11 6 0 11 -9 11 -20z m65 10 c-3 -5 -12 -10 -18 -10 -7 0
-6 4 3 10 19 12 23 12 15 0z m64 -37 c2 -2 -5 -3 -17 -3 -14 0 -22 6 -22 16 0
14 3 15 18 3 9 -7 19 -15 21 -16z m163 13 c-21 -11 -22 -14 -8 -25 17 -14 21
-31 8 -31 -9 0 -32 44 -32 60 0 6 12 10 28 10 l27 -1 -23 -13z m-449 -13 c-4
-11 -3 -14 5 -9 7 4 12 2 12 -3 0 -6 -7 -11 -15 -11 -15 0 -21 21 -8 33 11 11
13 8 6 -10z m218 -6 c-10 -9 -11 -8 -5 6 3 10 9 15 12 12 3 -3 0 -11 -7 -18z
m166 -3 c-3 -3 -12 -4 -19 -1 -8 3 -5 6 6 6 11 1 17 -2 13 -5z m132 -31 c-3
-21 3 -22 31 -8 35 18 64 20 54 3 -5 -8 2 -9 26 -5 28 6 31 5 20 -8 -12 -15
-35 -16 -57 -2 -6 4 -14 3 -18 -3 -7 -11 -68 -14 -78 -4 -8 8 3 34 14 34 5 0
8 -3 8 -7z m-169 -14 c0 -6 7 -9 15 -5 9 3 15 0 15 -10 0 -11 -4 -12 -19 -4
-11 5 -27 7 -35 4 -9 -3 -16 -2 -16 4 0 10 15 19 33 21 4 1 7 -4 7 -10z m75 1
c3 -5 -1 -10 -10 -10 -9 0 -13 5 -10 10 3 6 8 10 10 10 2 0 7 -4 10 -10z
m-180 -31 c4 -6 17 -14 29 -19 20 -8 20 -9 -4 -9 -15 -1 -30 7 -38 19 -7 11
-8 20 -3 20 6 0 13 -5 16 -11z m-235 -9 c0 -5 -4 -10 -10 -10 -5 0 -10 5 -10
10 0 6 5 10 10 10 6 0 10 -4 10 -10z m430 -2 c0 -4 -4 -8 -9 -8 -6 0 -12 4
-15 8 -3 5 1 9 9 9 8 0 15 -4 15 -9z m-320 -12 c-7 -7 -14 -6 -21 1 -9 9 -7
12 9 10 14 -1 18 -5 12 -11z m-135 -26 c3 -5 2 -10 -4 -10 -5 0 -13 5 -16 10
-3 6 -2 10 4 10 5 0 13 -4 16 -10z m216 -10 c6 0 7 4 4 10 -3 6 1 7 9 4 9 -3
16 -10 16 -15 0 -12 27 -11 33 1 3 6 4 5 3 -2 -2 -7 -15 -12 -31 -11 -24 2
-26 -1 -21 -22 5 -20 2 -25 -11 -25 -13 0 -15 3 -5 8 10 7 8 13 -6 30 -11 12
-26 22 -33 23 -8 0 -5 4 6 8 11 5 22 4 23 0 2 -5 8 -9 13 -9z m-121 -15 c0 -8
-7 -15 -16 -15 -14 0 -14 3 -4 15 7 8 14 15 16 15 2 0 4 -7 4 -15z m70 -15 c8
-5 11 -10 5 -10 -5 0 -17 5 -25 10 -8 5 -10 10 -5 10 6 0 17 -5 25 -10z
m-3020 -20 c0 -5 -6 -10 -14 -10 -8 0 -18 5 -21 10 -3 6 3 10 14 10 12 0 21
-4 21 -10z m2845 -11 c-7 -10 -35 -1 -35 11 0 5 9 6 20 3 11 -3 17 -9 15 -14z
m-3025 -39 c-6 -11 -13 -20 -16 -20 -2 0 0 9 6 20 6 11 13 20 16 20 2 0 0 -9
-6 -20z m2990 -10 c0 -11 -2 -20 -4 -20 -2 0 -6 9 -9 20 -3 11 -1 20 4 20 5 0
9 -9 9 -20z m62 -2 c-7 -7 -12 -8 -12 -2 0 6 3 14 7 17 3 4 9 5 12 2 2 -3 -1
-11 -7 -17z m-230 -10 c-7 -7 -12 -8 -12 -2 0 6 3 14 7 17 3 4 9 5 12 2 2 -3
-1 -11 -7 -17z m318 12 c0 -12 -8 -12 -35 0 -18 8 -17 9 8 9 15 1 27 -3 27 -9z
m-200 -10 c0 -5 -4 -10 -10 -10 -5 0 -10 5 -10 10 0 6 5 10 10 10 6 0 10 -4
10 -10z m244 -5 c3 -9 0 -15 -9 -15 -8 0 -15 7 -15 15 0 8 4 15 9 15 5 0 11
-7 15 -15z m-3154 -35 c0 -5 -5 -10 -11 -10 -5 0 -7 5 -4 10 3 6 8 10 11 10 2
0 4 -4 4 -10z m3013 -24 c-4 -6 -8 -5 -11 2 -2 7 -10 12 -18 12 -9 0 -12 4 -9
10 4 6 13 5 25 -2 10 -7 16 -17 13 -22z m-153 8 c0 -2 -7 -4 -15 -4 -8 0 -15
4 -15 10 0 5 7 7 15 4 8 -4 15 -8 15 -10z m14 -29 c-4 -9 0 -15 10 -15 9 0 16
-4 16 -9 0 -10 -41 -23 -49 -16 -2 3 1 5 7 5 8 0 9 7 2 25 -7 20 -6 25 5 25 9
0 12 -6 9 -15z m92 -11 c-3 -8 -1 -14 5 -14 6 0 9 -7 6 -15 -4 -8 -2 -17 3
-20 6 -4 10 -2 10 3 0 5 11 14 25 20 34 16 39 15 21 -3 -8 -8 -20 -15 -26 -15
-6 0 -8 -4 -5 -10 3 -5 -3 -10 -14 -10 -22 0 -58 61 -46 80 9 15 28 1 21 -16z
m224 16 c0 -5 -5 -10 -11 -10 -5 0 -7 5 -4 10 3 6 8 10 11 10 2 0 4 -4 4 -10z
m-155 -10 c3 -5 -1 -10 -9 -10 -9 0 -16 5 -16 10 0 6 4 10 9 10 6 0 13 -4 16
-10z m-110 -20 c3 -5 1 -10 -4 -10 -6 0 -11 5 -11 10 0 6 2 10 4 10 3 0 8 -4
11 -10z m-2880 -20 c3 -5 1 -10 -4 -10 -6 0 -11 5 -11 10 0 6 2 10 4 10 3 0 8
-4 11 -10z m2895 -39 c0 -10 -42 -23 -49 -15 -7 6 20 24 37 24 6 0 12 -4 12
-9z m22 -25 c-10 -6 -17 -17 -15 -23 3 -7 -2 -13 -11 -13 -23 0 -20 31 3 37
13 3 18 10 13 21 -5 15 -4 15 12 3 16 -14 16 -15 -2 -25z m-2977 -45 c-6 -5
-25 10 -25 20 0 5 6 4 14 -3 8 -7 12 -15 11 -17z m3105 14 c0 -8 -7 -15 -15
-15 -16 0 -20 12 -8 23 11 12 23 8 23 -8z m-3150 -21 c0 -2 -7 -4 -15 -4 -8 0
-15 4 -15 10 0 5 7 7 15 4 8 -4 15 -8 15 -10z m364 -89 c3 -8 1 -15 -4 -15 -6
0 -10 7 -10 15 0 8 2 15 4 15 2 0 6 -7 10 -15z m106 -11 c0 -8 -4 -12 -10 -9
-5 3 -10 10 -10 16 0 5 5 9 10 9 6 0 10 -7 10 -16z m-370 -68 c0 -3 -4 -8 -10
-11 -5 -3 -10 -1 -10 4 0 6 5 11 10 11 6 0 10 -2 10 -4z m325 -44 c-3 -3 -11
0 -18 7 -9 10 -8 11 6 5 10 -3 15 -9 12 -12z m-170 -13 c-4 -5 -12 -9 -18 -8
-9 0 -8 2 1 6 6 2 9 10 6 15 -4 7 -2 8 5 4 6 -4 9 -12 6 -17z m48 -63 c4 -10
0 -12 -15 -8 -15 4 -17 7 -6 13 17 11 15 11 21 -5z m-133 -5 c0 -5 -9 -7 -20
-4 -11 3 -20 7 -20 9 0 2 9 4 20 4 11 0 20 -4 20 -9z m675 -51 c3 -5 2 -10 -4
-10 -5 0 -13 5 -16 10 -3 6 -2 10 4 10 5 0 13 -4 16 -10z m-770 -30 c3 -5 1
-10 -4 -10 -6 0 -11 5 -11 10 0 6 2 10 4 10 3 0 8 -4 11 -10z m-130 -20 c-3
-5 -10 -10 -16 -10 -5 0 -9 5 -9 10 0 6 7 10 16 10 8 0 12 -4 9 -10z m781 -17
c-7 -7 -26 7 -26 19 0 6 6 6 15 -2 9 -7 13 -15 11 -17z m144 17 c0 -5 -2 -10
-4 -10 -3 0 -8 5 -11 10 -3 6 -1 10 4 10 6 0 11 -4 11 -10z m-490 -20 c0 -5
-2 -10 -4 -10 -3 0 -8 5 -11 10 -3 6 -1 10 4 10 6 0 11 -4 11 -10z m-66 -9 c4
-5 -3 -7 -14 -4 -23 6 -26 13 -6 13 8 0 17 -4 20 -9z m311 -1 c3 -5 -1 -10
-10 -10 -9 0 -13 5 -10 10 3 6 8 10 10 10 2 0 7 -4 10 -10z m-205 -10 c13 -8
13 -10 -2 -10 -9 0 -20 5 -23 10 -8 13 5 13 25 0z m85 -40 c8 -13 -5 -13 -25
0 -13 8 -13 10 2 10 9 0 20 -4 23 -10z m258 -27 c-7 -2 -19 -2 -25 0 -7 3 -2
5 12 5 14 0 19 -2 13 -5z m72 -3 c-3 -5 -12 -10 -18 -10 -7 0 -6 4 3 10 19 12
23 12 15 0z m-855 -26 c0 -8 -5 -12 -10 -9 -6 4 -8 11 -5 16 9 14 15 11 15 -7z
m290 0 c0 -8 -5 -12 -10 -9 -6 4 -8 11 -5 16 9 14 15 11 15 -7z m180 6 c-8 -5
-16 -15 -16 -22 -1 -7 -2 -19 -3 -26 -1 -10 -6 -10 -21 -2 -22 12 -28 32 -6
24 8 -3 16 3 19 15 3 12 13 21 24 21 15 0 16 -2 3 -10z m-77 -17 c-7 -2 -19
-2 -25 0 -7 3 -2 5 12 5 14 0 19 -2 13 -5z m-49 -68 c3 -8 1 -15 -4 -15 -6 0
-10 7 -10 15 0 8 2 15 4 15 2 0 6 -7 10 -15z m86 5 c0 -5 -2 -10 -4 -10 -3 0
-8 5 -11 10 -3 6 -1 10 4 10 6 0 11 -4 11 -10z m520 0 c0 -5 -2 -10 -4 -10 -3
0 -8 5 -11 10 -3 6 -1 10 4 10 6 0 11 -4 11 -10z m-899 -48 c-7 -2 -18 1 -23
6 -8 8 -4 9 13 5 13 -4 18 -8 10 -11z m459 8 c0 -5 -4 -10 -9 -10 -6 0 -13 5
-16 10 -3 6 1 10 9 10 9 0 16 -4 16 -10z m121 -7 c13 -16 12 -17 -3 -4 -10 7
-18 15 -18 17 0 8 8 3 21 -13z m-191 -3 c0 -5 -4 -10 -9 -10 -6 0 -13 5 -16
10 -3 6 1 10 9 10 9 0 16 -4 16 -10z m252 -48 c-9 -9 -31 -18 -47 -19 -17 -1
-23 1 -15 4 8 3 18 11 22 17 5 7 8 6 8 -4 1 -12 3 -11 11 3 5 9 17 17 24 17
12 0 11 -4 -3 -18z m-469 -26 c4 -10 1 -13 -9 -9 -15 6 -19 23 -5 23 5 0 11
-7 14 -14z m-138 -16 c3 -6 -1 -7 -9 -4 -18 7 -21 14 -7 14 6 0 13 -4 16 -10z
m57 -31 c5 -3 -4 -6 -20 -6 -26 0 -27 2 -13 17 9 9 18 12 20 5 2 -5 8 -13 13
-16z m715 9 c-3 -8 -6 -5 -6 6 -1 11 2 17 5 13 3 -3 4 -12 1 -19z m-297 -8 c0
-5 -5 -10 -11 -10 -5 0 -7 5 -4 10 3 6 8 10 11 10 2 0 4 -4 4 -10z m22 -22
c-7 -7 -12 -8 -12 -2 0 14 12 26 19 19 2 -3 -1 -11 -7 -17z m268 -12 c0 -2 -9
-6 -20 -9 -11 -3 -18 -1 -14 4 5 9 34 13 34 5z m-163 -22 c-3 -3 -12 -4 -19
-1 -8 3 -5 6 6 6 11 1 17 -2 13 -5z m-384 -37 c15 -23 15 -24 -11 -19 -15 3
-22 7 -15 9 7 2 9 11 6 19 -8 22 3 17 20 -9z m497 9 c0 -3 -4 -8 -10 -11 -5
-3 -10 -1 -10 4 0 6 5 11 10 11 6 0 10 -2 10 -4z m-60 -26 c0 -5 -5 -10 -11
-10 -5 0 -7 5 -4 10 3 6 8 10 11 10 2 0 4 -4 4 -10z m-353 -16 c-3 -3 -12 -4
-19 -1 -8 3 -5 6 6 6 11 1 17 -2 13 -5z m425 -36 c-7 -7 -12 -8 -12 -2 0 14
12 26 19 19 2 -3 -1 -11 -7 -17z m-362 -38 c-8 -5 -19 -10 -25 -10 -5 0 -3 5
5 10 8 5 20 10 25 10 6 0 3 -5 -5 -10z m-225 -40 c3 -6 -1 -7 -9 -4 -18 7 -21
14 -7 14 6 0 13 -4 16 -10z m64 -46 c13 -12 -8 -10 -29 2 l-25 15 25 -7 c14
-3 27 -8 29 -10z m481 12 c0 -3 -4 -8 -10 -11 -5 -3 -10 -1 -10 4 0 6 5 11 10
11 6 0 10 -2 10 -4z m-220 -56 c0 -5 -5 -10 -11 -10 -5 0 -7 5 -4 10 3 6 8 10
11 10 2 0 4 -4 4 -10z m320 -10 c0 -5 -2 -10 -4 -10 -3 0 -8 5 -11 10 -3 6 -1
10 4 10 6 0 11 -4 11 -10z m-450 -106 c0 -8 -5 -12 -10 -9 -6 4 -8 11 -5 16 9
14 15 11 15 -7z m-263 -56 c-3 -8 -6 -5 -6 6 -1 11 2 17 5 13 3 -3 4 -12 1
-19z m723 2 c0 -5 -4 -10 -10 -10 -5 0 -10 5 -10 10 0 6 5 10 10 10 6 0 10 -4
10 -10z m-623 -72 c-3 -8 -6 -5 -6 6 -1 11 2 17 5 13 3 -3 4 -12 1 -19z"/>
<path d="M766 5251 c-3 -5 1 -12 10 -15 20 -8 29 -1 19 13 -8 13 -22 14 -29 2z"/>
<path d="M2915 5140 c-3 -5 -2 -10 4 -10 5 0 13 5 16 10 3 6 2 10 -4 10 -5 0
-13 -4 -16 -10z"/>
<path d="M1203 5635 c0 -8 4 -15 9 -15 4 0 8 4 8 9 0 6 -4 12 -8 15 -5 3 -9
-1 -9 -9z"/>
<path d="M680 5625 c-24 -13 -24 -14 -3 -12 12 1 25 7 27 14 6 16 7 16 -24 -2z"/>
<path d="M906 5617 c3 -10 9 -15 12 -12 3 3 0 11 -7 18 -10 9 -11 8 -5 -6z"/>
<path d="M1039 5613 c-13 -15 -12 -15 9 -4 23 12 28 21 13 21 -5 0 -15 -7 -22
-17z"/>
<path d="M3412 5620 c2 -7 -8 -14 -22 -16 -14 -3 -26 -9 -28 -14 -2 -6 -11
-10 -20 -10 -12 0 -13 -3 -4 -12 7 -7 12 -20 12 -30 0 -10 5 -18 11 -18 6 0 9
-7 5 -15 -3 -8 -1 -15 3 -15 11 0 21 25 21 50 0 10 6 21 13 23 7 3 4 6 -6 6
-20 1 -18 26 1 26 19 0 35 22 23 30 -6 3 -10 1 -9 -5z"/>
<path d="M976 5606 c3 -8 12 -17 20 -20 8 -3 11 -12 7 -23 -6 -17 -6 -17 10
-1 18 18 23 33 8 23 -5 -3 -12 4 -16 15 -3 11 -13 20 -20 20 -8 0 -12 -6 -9
-14z"/>
<path d="M695 5584 c9 -9 19 -13 23 -10 3 4 0 11 -8 16 -24 15 -33 11 -15 -6z"/>
<path d="M730 5589 c0 -5 5 -7 10 -4 6 3 10 8 10 11 0 2 -4 4 -10 4 -5 0 -10
-5 -10 -11z"/>
<path d="M566 5584 c7 -3 10 -14 7 -24 -4 -14 0 -20 11 -20 9 0 16 -8 16 -20
0 -11 7 -20 15 -20 8 0 15 7 15 15 0 8 5 15 11 15 5 0 7 -4 4 -10 -3 -5 -1
-10 4 -10 14 0 14 13 1 26 -8 8 -6 15 5 24 8 7 15 16 15 21 0 12 -37 11 -45
-1 -4 -6 -15 -6 -31 0 -25 10 -50 13 -28 4z"/>
<path d="M880 5575 c0 -8 -6 -15 -14 -15 -15 0 -28 -24 -19 -34 4 -3 12 -1 18
4 9 8 14 6 19 -5 3 -8 10 -15 16 -15 6 0 8 5 4 11 -4 7 -7 25 -6 40 0 16 -4
29 -9 29 -5 0 -9 -7 -9 -15z"/>
<path d="M947 5574 c-8 -9 33 -85 51 -91 8 -4 22 -2 30 3 18 12 35 54 22 54
-6 0 -10 -7 -10 -15 0 -18 -24 -30 -40 -20 -7 5 -8 11 -1 19 7 8 4 12 -11 13
-25 2 -37 14 -20 20 6 3 12 9 12 14 0 10 -23 12 -33 3z"/>
<path d="M1070 5559 c0 -5 5 -7 10 -4 6 3 10 8 10 11 0 2 -4 4 -10 4 -5 0 -10
-5 -10 -11z"/>
<path d="M3253 5556 c-9 -11 -9 -15 0 -19 7 -3 14 3 14 14 2 22 2 22 -14 5z"/>
<path d="M1190 5550 c0 -5 5 -10 11 -10 5 0 7 5 4 10 -3 6 -8 10 -11 10 -2 0
-4 -4 -4 -10z"/>
<path d="M3181 5533 c0 -11 3 -13 6 -5 2 6 9 12 14 12 4 0 6 -7 3 -15 -7 -16
-3 -18 20 -9 13 5 13 8 1 20 -19 20 -45 17 -44 -3z"/>
<path d="M940 5520 c0 -5 5 -10 10 -10 6 0 10 5 10 10 0 6 -4 10 -10 10 -5 0
-10 -4 -10 -10z"/>
<path d="M1106 5521 c-3 -5 1 -11 9 -14 9 -4 12 -1 8 9 -6 16 -10 17 -17 5z"/>
<path d="M1190 5514 c0 -8 5 -12 10 -9 6 4 8 11 5 16 -9 14 -15 11 -15 -7z"/>
<path d="M3110 5519 c0 -5 5 -7 10 -4 6 3 10 8 10 11 0 2 -4 4 -10 4 -5 0 -10
-5 -10 -11z"/>
<path d="M3500 5520 c0 -5 5 -10 10 -10 6 0 10 5 10 10 0 6 -4 10 -10 10 -5 0
-10 -4 -10 -10z"/>
<path d="M829 5517 c-7 -10 -3 -68 7 -92 11 -27 13 -28 20 -11 5 13 3 21 -4
24 -7 2 -9 8 -6 13 3 6 11 5 20 -2 11 -9 18 -9 26 -1 7 7 8 12 3 12 -6 0 -3 5
5 10 19 12 5 27 -38 39 -18 5 -33 9 -33 8z"/>
<path d="M3050 5509 c0 -5 5 -7 10 -4 6 3 10 8 10 11 0 2 -4 4 -10 4 -5 0 -10
-5 -10 -11z"/>
<path d="M365 5500 c-3 -5 -1 -10 4 -10 6 0 11 5 11 10 0 6 -2 10 -4 10 -3 0
-8 -4 -11 -10z"/>
<path d="M1220 5500 c0 -5 5 -10 10 -10 6 0 10 5 10 10 0 6 -4 10 -10 10 -5 0
-10 -4 -10 -10z"/>
<path d="M1100 5492 c0 -4 5 -13 12 -20 9 -9 9 -12 -2 -12 -13 0 -13 -2 0 -10
8 -5 19 -10 23 -10 11 0 4 43 -8 52 -13 10 -25 10 -25 0z"/>
<path d="M3165 5490 c3 -5 13 -10 21 -10 8 0 14 5 14 10 0 6 -9 10 -21 10 -11
0 -17 -4 -14 -10z"/>
<path d="M3216 5484 c-22 -21 -20 -27 4 -12 11 7 20 16 20 20 0 12 -7 10 -24
-8z"/>
<path d="M3490 5490 c0 -5 10 -11 23 -13 15 -3 12 -5 -11 -6 -44 -1 -38 -25 7
-29 29 -3 32 -1 29 19 -3 21 -48 48 -48 29z"/>
<path d="M3300 5478 c0 -7 -4 -20 -10 -28 -7 -12 -11 -12 -28 3 -17 15 -20 16
-25 3 -3 -8 -16 -16 -28 -18 -12 -2 -24 -9 -27 -16 -3 -11 0 -12 17 -3 12 7
25 9 30 6 5 -3 11 0 13 6 6 19 48 -8 48 -31 0 -12 7 -20 18 -20 10 0 13 3 6 8
-20 13 -25 47 -9 68 17 23 19 34 5 34 -5 0 -10 -6 -10 -12z"/>
<path d="M1037 5473 c-4 -3 -7 -11 -7 -17 0 -6 5 -5 12 2 6 6 9 14 7 17 -3 3
-9 2 -12 -2z"/>
<path d="M1160 5473 c0 -4 5 -15 10 -23 8 -13 10 -13 10 2 0 9 -4 20 -10 23
-5 3 -10 3 -10 -2z"/>
<path d="M3095 5442 c-16 -9 -32 -18 -34 -19 -2 -2 -2 -6 2 -9 6 -6 77 33 77
42 0 8 -15 3 -45 -14z"/>
<path d="M975 5430 c3 -5 8 -10 11 -10 2 0 4 5 4 10 0 6 -5 10 -11 10 -5 0 -7
-4 -4 -10z"/>
<path d="M1020 5430 c0 -5 5 -10 10 -10 6 0 10 5 10 10 0 6 -4 10 -10 10 -5 0
-10 -4 -10 -10z"/>
<path d="M1087 5429 c6 -6 9 -17 6 -25 -4 -10 4 -12 34 -7 21 3 40 7 42 9 9 8
-9 17 -34 17 -14 0 -28 3 -31 8 -3 5 -10 9 -17 9 -8 0 -8 -3 0 -11z"/>
<path d="M2976 5425 c-3 -8 -1 -15 4 -15 6 0 10 7 10 15 0 8 -2 15 -4 15 -2 0
-6 -7 -10 -15z"/>
<path d="M3120 5420 c0 -5 4 -10 9 -10 6 0 13 5 16 10 3 6 -1 10 -9 10 -9 0
-16 -4 -16 -10z"/>
<path d="M2924 5395 c-26 -22 -27 -25 -9 -26 17 -1 16 -2 -4 -8 -13 -3 -25
-14 -27 -24 -2 -18 5 -21 44 -17 13 1 30 -4 39 -12 15 -12 15 -11 2 9 -9 16
-20 21 -34 17 l-20 -5 20 18 c11 10 20 30 20 46 0 15 0 27 -1 27 0 0 -14 -11
-30 -25z"/>
<path d="M3255 5410 c-3 -5 -12 -7 -19 -4 -8 3 -19 -6 -27 -25 -11 -24 -16
-28 -28 -18 -12 10 -14 9 -8 -6 4 -10 7 -26 8 -35 0 -12 3 -10 10 6 5 13 18
26 28 29 13 3 18 10 14 20 -4 11 -2 14 8 11 8 -3 14 -15 13 -27 0 -11 3 -21 8
-21 4 0 7 18 6 40 -1 42 -3 46 -13 30z"/>
<path d="M980 5400 c0 -5 5 -10 11 -10 5 0 7 5 4 10 -3 6 -8 10 -11 10 -2 0
-4 -4 -4 -10z"/>
<path d="M2840 5400 c0 -5 5 -10 10 -10 6 0 10 5 10 10 0 6 -4 10 -10 10 -5 0
-10 -4 -10 -10z"/>
<path d="M2995 5400 c-3 -5 -1 -10 4 -10 6 0 11 5 11 10 0 6 -2 10 -4 10 -3 0
-8 -4 -11 -10z"/>
<path d="M3099 5397 c7 -10 20 -17 28 -17 8 0 11 -4 8 -10 -3 -5 -1 -10 4 -10
6 0 11 3 11 8 0 10 -20 39 -20 29 0 -4 -10 -2 -22 4 -21 11 -22 11 -9 -4z"/>
<path d="M2780 5369 c0 -5 9 -9 20 -9 11 0 20 2 20 4 0 2 -9 6 -20 9 -11 3
-20 1 -20 -4z"/>
<path d="M2985 5369 c-4 -6 -5 -12 -2 -15 2 -3 7 2 10 11 7 17 1 20 -8 4z"/>
<path d="M3040 5356 c0 -7 8 -16 18 -20 9 -3 24 -9 32 -12 8 -3 7 0 -2 6 -10
6 -18 18 -18 25 0 8 -7 15 -15 15 -8 0 -15 -6 -15 -14z"/>
<path d="M3215 5340 c-3 -6 1 -13 9 -16 14 -5 14 -8 0 -21 -8 -9 -13 -17 -12
-19 7 -7 47 8 51 20 6 15 -40 49 -48 36z"/>
<path d="M3040 5320 c-9 -6 -10 -10 -3 -10 6 0 15 5 18 10 8 12 4 12 -15 0z"/>
<path d="M3115 5320 c-7 -12 2 -12 30 0 19 8 19 9 -2 9 -12 1 -25 -3 -28 -9z"/>
<path d="M2921 5296 c-10 -11 -8 -16 9 -21 12 -4 24 -4 27 -1 4 3 -2 6 -11 6
-12 0 -16 5 -12 15 7 19 2 19 -13 1z"/>
<path d="M2980 5286 c0 -2 7 -6 15 -10 8 -3 15 -1 15 4 0 6 -7 10 -15 10 -8 0
-15 -2 -15 -4z"/>
<path d="M3028 5273 c7 -3 16 -2 19 1 4 3 -2 6 -13 5 -11 0 -14 -3 -6 -6z"/>
<path d="M3260 5270 c0 -5 5 -10 11 -10 5 0 7 5 4 10 -3 6 -8 10 -11 10 -2 0
-4 -4 -4 -10z"/>
<path d="M2750 5231 c0 -11 5 -23 10 -26 6 -3 10 3 10 14 0 11 -4 23 -10 26
-5 3 -10 -3 -10 -14z"/>
<path d="M3918 3253 c-10 -2 -18 -9 -18 -15 0 -5 7 -8 15 -5 8 4 17 2 20 -3 4
-6 12 -10 18 -10 7 0 6 4 -3 11 -12 8 -11 9 6 5 14 -5 21 -2 21 9 0 15 -22 18
-59 8z"/>
<path d="M3996 3230 c4 -14 7 -31 7 -37 0 -7 7 -13 14 -13 9 0 11 5 6 13 -4 6
-8 14 -8 17 0 3 -6 14 -13 25 -12 19 -12 18 -6 -5z"/>
<path d="M3965 3210 c-3 -5 -1 -10 4 -10 6 0 11 5 11 10 0 6 -2 10 -4 10 -3 0
-8 -4 -11 -10z"/>
<path d="M3915 3193 c-18 -14 -18 -15 -2 -9 10 3 23 6 28 6 5 0 9 5 9 10 0 14
-12 12 -35 -7z"/>
<path d="M3800 3155 c0 -8 4 -15 10 -15 5 0 7 7 4 15 -4 8 -8 15 -10 15 -2 0
-4 -7 -4 -15z"/>
<path d="M3910 3146 c0 -29 -14 -34 -28 -10 -5 10 -14 14 -21 9 -17 -10 16
-46 36 -38 9 4 16 -2 20 -16 6 -25 21 -28 19 -3 0 10 6 16 17 16 24 -2 22 17
-3 23 -11 3 -19 12 -18 21 2 8 -3 17 -9 19 -8 3 -13 -5 -13 -21z"/>
<path d="M3965 3160 c3 -5 10 -10 16 -10 5 0 9 5 9 10 0 6 -7 10 -16 10 -8 0
-12 -4 -9 -10z"/>
<path d="M4033 3158 c4 -11 1 -14 -12 -11 -12 3 -20 -2 -24 -16 -6 -24 -6 -24
27 -11 27 10 34 34 14 46 -7 5 -9 2 -5 -8z"/>
<path d="M3670 3134 c-11 -13 -10 -16 8 -21 12 -3 22 -12 22 -19 0 -17 -22
-18 -39 -1 -11 10 -14 10 -18 0 -3 -7 -11 -13 -20 -13 -20 0 -11 -24 10 -28
10 -2 17 3 17 12 0 9 6 13 14 10 13 -5 11 -44 -3 -44 -27 0 -81 24 -81 35 0 8
-6 15 -14 15 -9 0 -14 -9 -13 -20 1 -11 7 -20 13 -20 8 0 11 -11 9 -30 -4 -27
-3 -29 11 -15 18 17 34 20 34 4 0 -5 -4 -7 -10 -4 -5 3 -10 1 -10 -4 0 -6 5
-11 11 -11 8 0 8 -4 0 -14 -8 -10 -9 -16 -1 -21 9 -5 15 14 11 38 0 4 6 7 15
7 8 0 13 4 10 9 -8 13 15 20 50 15 28 -4 28 -4 7 7 -27 14 -29 31 -8 49 8 7
15 18 15 25 0 7 8 16 18 20 15 6 14 8 -8 20 -32 18 -35 18 -50 -1z m-47 -111
c-7 -2 -19 -2 -25 0 -7 3 -2 5 12 5 14 0 19 -2 13 -5z"/>
<path d="M3743 3082 c0 -12 5 -22 9 -22 11 0 10 12 -2 30 -7 12 -9 10 -7 -8z"/>
<path d="M3776 3083 c-4 -9 -1 -20 6 -24 9 -6 5 -11 -12 -18 -24 -9 -24 -10
-3 -10 12 -1 24 3 28 9 3 5 12 7 19 4 7 -3 16 2 20 11 3 10 2 14 -5 10 -12 -8
-41 14 -33 26 3 5 1 9 -4 9 -6 0 -13 -8 -16 -17z"/>
<path d="M3986 3092 c-9 -14 10 -33 27 -26 21 8 22 20 1 28 -20 8 -22 8 -28
-2z"/>
<path d="M3525 3060 c3 -5 8 -10 11 -10 2 0 4 5 4 10 0 6 -5 10 -11 10 -5 0
-7 -4 -4 -10z"/>
<path d="M3450 3035 c0 -9 6 -12 15 -9 8 4 17 -1 21 -9 3 -9 17 -14 34 -13 40
2 50 16 11 16 -18 0 -39 7 -47 15 -19 19 -34 19 -34 0z"/>
<path d="M3710 3039 c0 -5 5 -7 10 -4 6 3 10 8 10 11 0 2 -4 4 -10 4 -5 0 -10
-5 -10 -11z"/>
<path d="M3847 3044 c-3 -3 -3 -13 0 -21 3 -8 0 -18 -6 -23 -9 -5 -8 -9 4 -13
9 -4 13 -3 10 3 -11 17 7 11 21 -7 13 -17 14 -17 8 0 -5 13 -2 16 10 11 9 -3
16 -10 16 -15 0 -4 10 -14 23 -20 12 -6 19 -8 14 -4 -4 5 4 16 19 25 21 15 23
18 9 24 -9 3 -21 3 -26 0 -6 -3 -22 -3 -37 1 -20 5 -23 8 -11 16 12 8 12 10
-1 19 -17 11 -44 13 -53 4z"/>
<path d="M3930 3035 c0 -8 7 -15 15 -15 8 0 15 7 15 15 0 8 -7 15 -15 15 -8 0
-15 -7 -15 -15z"/>
<path d="M3980 3028 c0 -7 11 -21 24 -30 21 -15 25 -16 30 -2 3 8 2 13 -3 10
-5 -3 -14 1 -20 8 -10 11 -8 15 6 19 12 3 8 5 -9 6 -17 1 -28 -4 -28 -11z"/>
<path d="M3740 3010 c0 -5 5 -10 10 -10 6 0 10 5 10 10 0 6 -4 10 -10 10 -5 0
-10 -4 -10 -10z"/>
<path d="M3792 2997 c-9 -10 -8 -18 4 -33 14 -18 15 -18 5 3 -8 16 -8 23 2 26
6 2 9 7 6 11 -3 4 -11 0 -17 -7z"/>
<path d="M3510 2949 c-14 -4 -21 -7 -17 -8 4 -1 2 -7 -5 -15 -11 -11 -14 -11
-24 2 -8 11 -13 12 -18 3 -4 -6 -12 -8 -18 -5 -7 4 -8 2 -4 -4 4 -6 13 -9 21
-5 8 3 15 0 15 -7 0 -8 6 -9 18 -5 43 18 87 24 94 12 11 -18 21 0 10 19 -11
19 -34 24 -72 13z"/>
<path d="M3695 2950 c3 -5 11 -10 16 -10 6 0 7 5 4 10 -3 6 -11 10 -16 10 -6
0 -7 -4 -4 -10z"/>
<path d="M3830 2930 c0 -5 7 -10 15 -10 8 0 15 5 15 10 0 6 -7 10 -15 10 -8 0
-15 -4 -15 -10z"/>
<path d="M3647 2916 c-3 -8 0 -13 6 -12 15 2 22 19 9 24 -5 1 -12 -4 -15 -12z"/>
<path d="M3767 2923 c-4 -3 -7 -11 -7 -17 0 -6 5 -5 12 2 6 6 9 14 7 17 -3 3
-9 2 -12 -2z"/>
<path d="M3604 2913 c3 -4 -4 -13 -16 -20 l-23 -12 26 -1 c16 0 29 7 33 16 9
22 8 24 -11 24 -9 0 -13 -3 -9 -7z"/>
<path d="M3865 2910 c-16 -7 -17 -9 -3 -9 9 -1 20 4 23 9 7 11 7 11 -20 0z"/>
<path d="M3729 2883 c-8 -20 -20 -33 -31 -33 -10 0 -18 -7 -18 -15 0 -19 7
-19 26 0 8 8 21 12 28 9 17 -7 25 14 15 46 l-7 25 -13 -32z"/>
<path d="M3425 2890 c-3 -6 -2 -10 4 -10 5 0 11 -8 13 -17 3 -15 5 -15 10 -3
7 18 -18 45 -27 30z"/>
<path d="M3794 2885 c3 -20 13 -28 25 -20 8 4 6 11 -3 21 -18 18 -25 18 -22
-1z"/>
<path d="M3270 2880 c0 -5 7 -10 16 -10 8 0 12 5 9 10 -3 6 -10 10 -16 10 -5
0 -9 -4 -9 -10z"/>
<path d="M3334 2873 c-9 -6 -13 -16 -9 -22 3 -6 0 -11 -7 -11 -10 0 -9 -3 1
-9 12 -8 12 -12 2 -25 -11 -12 -11 -16 -1 -16 9 0 9 -4 -1 -17 -12 -14 -12
-16 1 -11 8 2 18 21 23 40 8 35 10 36 39 27 17 -4 35 -6 41 -2 6 3 7 1 3 -5
-3 -6 -2 -13 4 -17 5 -3 10 -2 10 3 0 6 10 8 23 5 21 -4 21 -4 2 8 -11 7 -27
14 -35 16 -17 2 -41 33 -35 43 8 12 -43 6 -61 -7z m53 -9 c-3 -3 -12 -4 -19
-1 -8 3 -5 6 6 6 11 1 17 -2 13 -5z"/>
<path d="M3484 2875 c-17 -13 -16 -14 14 -4 33 11 41 19 19 19 -7 0 -22 -7
-33 -15z"/>
<path d="M3858 2873 c7 -3 16 -2 19 1 4 3 -2 6 -13 5 -11 0 -14 -3 -6 -6z"/>
<path d="M3600 2851 c0 -6 5 -13 10 -16 6 -3 10 -1 10 5 0 8 6 8 20 0 11 -6
20 -7 20 -2 0 6 -10 12 -22 16 -32 8 -38 7 -38 -3z"/>
<path d="M3533 2838 c1 -7 -6 -12 -17 -11 -13 1 -15 -2 -7 -10 8 -8 16 -8 28
-1 23 14 28 34 9 34 -9 0 -15 -6 -13 -12z"/>
<path d="M3970 2839 c0 -5 5 -7 10 -4 6 3 10 8 10 11 0 2 -4 4 -10 4 -5 0 -10
-5 -10 -11z"/>
<path d="M3369 2813 c0 -5 -2 -16 -4 -25 -2 -9 2 -22 9 -27 9 -8 13 -6 13 7 0
9 -5 20 -11 24 -8 5 -7 8 2 8 6 0 12 5 12 10 0 11 -20 14 -21 3z"/>
<path d="M3696 2765 c-3 -9 0 -15 9 -15 9 0 12 6 9 15 -4 8 -7 15 -9 15 -2 0
-5 -7 -9 -15z"/>
<path d="M3420 2755 c0 -8 5 -15 10 -15 6 0 10 7 10 15 0 8 -4 15 -10 15 -5 0
-10 -7 -10 -15z"/>
<path d="M3090 2741 c0 -6 4 -13 10 -16 6 -3 7 1 4 9 -7 18 -14 21 -14 7z"/>
<path d="M3165 2740 c-8 -13 3 -30 20 -30 8 0 19 -8 24 -17 14 -24 14 -10 0
21 -13 27 -35 40 -44 26z"/>
<path d="M3330 2735 c7 -8 16 -15 21 -15 5 0 6 7 3 15 -4 8 -13 15 -21 15 -13
0 -13 -3 -3 -15z"/>
<path d="M3120 2730 c0 -5 5 -10 10 -10 6 0 10 5 10 10 0 6 -4 10 -10 10 -5 0
-10 -4 -10 -10z"/>
<path d="M3270 2699 c0 -6 -6 -9 -14 -6 -8 3 -16 -2 -19 -14 -4 -15 -2 -17 6
-11 7 6 22 12 33 14 19 2 20 5 8 16 -10 9 -14 9 -14 1z"/>
<path d="M3345 2700 c3 -5 8 -10 11 -10 2 0 4 5 4 10 0 6 -5 10 -11 10 -5 0
-7 -4 -4 -10z"/>
<path d="M3140 2686 c0 -2 11 -6 25 -8 14 -3 25 -1 25 3 0 5 -11 9 -25 9 -14
0 -25 -2 -25 -4z"/>
<path d="M3163 2625 c0 -8 4 -12 9 -9 4 3 8 9 8 15 0 5 -4 9 -8 9 -5 0 -9 -7
-9 -15z"/>
<path d="M3188 2573 c7 -3 16 -2 19 1 4 3 -2 6 -13 5 -11 0 -14 -3 -6 -6z"/>
</g>
</svg>
